<svg width="662.4px" height="122.1px" xmlns="http://www.w3.org/2000/svg" viewBox="-81.1937255859375 13.968212890625004 662.387451171875 122.06357421874999" style="background-color: rgba(0, 0, 0, 0)" preserveAspectRatio="xMidYMid"><defs><linearGradient id="editing-gradow-gradient" x1="0" x2="1" y1="0.5" y2="0.5" gradientUnits="objectBoundingBox"><stop offset="0" stop-color="#f148f1"></stop><stop offset="1" stop-color="#4ce8e8"></stop></linearGradient><filter id="editing-gradow-filter" x="-100%" y="-100%" width="300%" height="300%"><feFlood flood-color="#fffcd9" result="flood"></feFlood><feComposite operator="in" in2="SourceAlpha" in="flood" result="shadow"></feComposite><feOffset dx="-4" dy="-4" in="SourceGraphic" result="offset-1"></feOffset><feOffset dx="4" dy="4" in="shadow" result="offset-2"></feOffset><feMerge><feMergeNode in="offset-2"></feMergeNode><feMergeNode in="offset-1"></feMergeNode></feMerge></filter></defs><g filter="url(#editing-gradow-filter)"><g transform="matrix(1.4,0,0,1.5,-59.5,168.8)"><path d="M 2.1 -39.1 L -11.8 -39.1 L -3.7 -81.3 L 10.4 -81.3 L 2.1 -39.1 Z M 57.9 -37.8 L 57.9 -37.8 L 57.9 -37.8 Q 50.1 -37.8 50.1 -43.8 L 50.1 -43.8 L 50.1 -43.8 Q 50.1 -46.4 51.3 -51.5 L 51.3 -51.5 L 51.3 -51.5 Q 52.4 -56.6 52.8 -58.6 L 52.8 -58.6 L 52.8 -58.6 Q 53.7 -63.3 53.7 -64.8 L 53.7 -64.8 L 53.7 -64.8 Q 53.7 -68.1 51.2 -68.1 L 51.2 -68.1 L 51.2 -68.1 Q 49.6 -68.1 48.1 -65.8 L 48.1 -65.8 L 48.1 -65.8 Q 46.6 -63.6 45.9 -59.2 L 45.9 -59.2 L 41.9 -39.1 L 29.4 -37.8 L 32.9 -55.2 L 32.9 -55.2 Q 33.4 -58.1 33.9 -61.3 L 33.9 -61.3 L 33.9 -61.3 Q 34.5 -64.6 34.5 -65.1 L 34.5 -65.1 L 34.5 -65.1 Q 34.5 -68.1 32.3 -68.1 L 32.3 -68.1 L 32.3 -68.1 Q 30.8 -68.1 29.2 -65.9 L 29.2 -65.9 L 29.2 -65.9 Q 27.6 -63.7 26.7 -59.2 L 26.7 -59.2 L 22.8 -39.1 L 10.2 -37.8 L 16.9 -71.7 L 27.4 -73 L 26.3 -66.5 L 26.3 -66.5 Q 27.9 -70 31 -71.5 L 31 -71.5 L 31 -71.5 Q 34.1 -73 38.9 -73 L 38.9 -73 L 38.9 -73 Q 41.6 -73 43.4 -71.6 L 43.4 -71.6 L 43.4 -71.6 Q 45.2 -70.3 45.8 -68.1 L 45.8 -68.1 L 45.8 -68.1 Q 46.9 -70.4 49.7 -71.7 L 49.7 -71.7 L 49.7 -71.7 Q 52.4 -73 55.9 -73 L 55.9 -73 L 55.9 -73 Q 59.3 -73 61 -72.2 L 61 -72.2 L 61 -72.2 Q 62.7 -71.5 63.7 -70.3 L 63.7 -70.3 L 63.7 -70.3 Q 65.4 -68.1 65.4 -64 L 65.4 -64 L 65.4 -64 Q 65.4 -59.9 63.7 -51.5 L 63.7 -51.5 L 63.7 -51.5 Q 62.8 -47.4 62.8 -45.9 L 62.8 -45.9 L 62.8 -45.9 Q 62.8 -44.4 63.7 -43.5 L 63.7 -43.5 L 63.7 -43.5 Q 64.5 -42.6 65.8 -42.5 L 65.8 -42.5 L 65.8 -42.5 Q 65.2 -40.3 63 -39.1 L 63 -39.1 L 63 -39.1 Q 60.8 -37.8 57.9 -37.8 Z M 73.5 -41 L 73.5 -41 L 73.5 -41 Q 72 -42.6 71.4 -45.3 L 71.4 -45.3 L 71.4 -45.3 Q 70.7 -47.9 70.7 -52.2 L 70.7 -52.2 L 70.7 -52.2 Q 70.7 -56.5 72.2 -60.4 L 72.2 -60.4 L 72.2 -60.4 Q 73.6 -64.3 76.3 -67.1 L 76.3 -67.1 L 76.3 -67.1 Q 81.8 -73 90.9 -73 L 90.9 -73 L 90.9 -73 Q 94.2 -73 96.5 -71.9 L 96.5 -71.9 L 107.5 -73 L 102.7 -48 L 102.7 -48 Q 102.6 -47.3 102.6 -45.8 L 102.6 -45.8 L 102.6 -45.8 Q 102.6 -44.4 103.4 -43.5 L 103.4 -43.5 L 103.4 -43.5 Q 104.3 -42.6 105.6 -42.5 L 105.6 -42.5 L 105.6 -42.5 Q 104.9 -40.3 102.6 -39.1 L 102.6 -39.1 L 102.6 -39.1 Q 100.3 -37.8 97.6 -37.8 L 97.6 -37.8 L 97.6 -37.8 Q 95 -37.8 93.2 -38.8 L 93.2 -38.8 L 93.2 -38.8 Q 91.5 -39.8 91 -41.4 L 91 -41.4 L 91 -41.4 Q 89.9 -39.8 87.8 -38.8 L 87.8 -38.8 L 87.8 -38.8 Q 85.6 -37.8 82.7 -37.8 L 82.7 -37.8 L 82.7 -37.8 Q 79.8 -37.8 77.4 -38.6 L 77.4 -38.6 L 77.4 -38.6 Q 75 -39.3 73.5 -41 Z M 87 -67 L 87 -67 L 87 -67 Q 86.3 -65.8 85.7 -63.9 L 85.7 -63.9 L 85.7 -63.9 Q 85 -61.9 84 -56.7 L 84 -56.7 L 84 -56.7 Q 82.9 -51.5 82.9 -47.8 L 82.9 -47.8 L 82.9 -47.8 Q 82.9 -44.1 83.5 -43 L 83.5 -43 L 83.5 -43 Q 84.1 -41.9 85.1 -41.9 L 85.1 -41.9 L 85.1 -41.9 Q 87.1 -41.9 88.6 -43.8 L 88.6 -43.8 L 88.6 -43.8 Q 90.1 -45.8 90.7 -49.2 L 90.7 -49.2 L 94.1 -68 L 94.1 -68 Q 92.8 -69.1 91.2 -69.1 L 91.2 -69.1 L 91.2 -69.1 Q 89.6 -69.1 88.7 -68.6 L 88.7 -68.6 L 88.7 -68.6 Q 87.8 -68.1 87 -67 Z M 115.2 -65.8 L 115.2 -65.8 L 115.2 -65.8 Q 117.4 -68.9 120.7 -70.9 L 120.7 -70.9 L 120.7 -70.9 Q 124 -73 128 -73 L 128 -73 L 128 -73 Q 132.1 -73 134 -71.7 L 134 -71.7 L 146.5 -73 L 142.2 -48.4 L 142.2 -48.4 Q 139.9 -35.9 135.2 -30.9 L 135.2 -30.9 L 135.2 -30.9 Q 130.7 -26.3 121.8 -26.3 L 121.8 -26.3 L 121.8 -26.3 Q 115.1 -26.3 111.3 -28.4 L 111.3 -28.4 L 111.3 -28.4 Q 107.4 -30.5 107.4 -34 L 107.4 -34 L 107.4 -34 Q 107.4 -36.6 109.4 -38.1 L 109.4 -38.1 L 109.4 -38.1 Q 111.4 -39.6 114.5 -39.6 L 114.5 -39.6 L 114.5 -39.6 Q 117.1 -39.6 119.2 -38.4 L 119.2 -38.4 L 119.2 -38.4 Q 120.4 -37.8 121 -36.9 L 121 -36.9 L 121 -36.9 Q 119.5 -35.6 119.5 -33.5 L 119.5 -33.5 L 119.5 -33.5 Q 119.5 -30.7 122.1 -30.7 L 122.1 -30.7 L 122.1 -30.7 Q 126.4 -30.7 128.8 -40.9 L 128.8 -40.9 L 128.8 -40.9 Q 129.5 -43.6 130.1 -46.4 L 130.1 -46.4 L 130.1 -46.4 Q 127.2 -42.8 120.7 -42.8 L 120.7 -42.8 L 120.7 -42.8 Q 116.1 -42.8 113.5 -45 L 113.5 -45 L 113.5 -45 Q 110.9 -47.2 110.9 -52.3 L 110.9 -52.3 L 110.9 -52.3 Q 110.9 -55.5 112 -59.1 L 112 -59.1 L 112 -59.1 Q 113.1 -62.7 115.2 -65.8 Z M 123.5 -52.1 L 123.5 -52.1 L 123.5 -52.1 Q 123.5 -47.8 125.8 -47.8 L 125.8 -47.8 L 125.8 -47.8 Q 127.3 -47.8 128.8 -49.4 L 128.8 -49.4 L 128.8 -49.4 Q 129.9 -50.8 130.4 -52.8 L 130.4 -52.8 L 133.7 -69.2 L 133.7 -69.2 Q 133.3 -69.3 133 -69.4 L 133 -69.4 L 133 -69.4 Q 132.4 -69.7 131.5 -69.7 L 131.5 -69.7 L 131.5 -69.7 Q 127.6 -69.7 125.3 -63.3 L 125.3 -63.3 L 125.3 -63.3 Q 123.5 -58.3 123.5 -52.1 Z M 174.9 -49.9 L 174.9 -49.9 L 174.9 -49.9 Q 176.5 -48.8 176.5 -46.4 L 176.5 -46.4 L 176.5 -46.4 Q 176.5 -44 175.3 -42.5 L 175.3 -42.5 L 175.3 -42.5 Q 174.1 -40.9 172.1 -39.9 L 172.1 -39.9 L 172.1 -39.9 Q 168 -37.8 163.6 -37.8 L 163.6 -37.8 L 163.6 -37.8 Q 159.2 -37.8 156.6 -38.7 L 156.6 -38.7 L 156.6 -38.7 Q 154 -39.7 152.3 -41.5 L 152.3 -41.5 L 152.3 -41.5 Q 148.9 -44.9 148.9 -51.1 L 148.9 -51.1 L 148.9 -51.1 Q 148.9 -60.8 154.1 -66.6 L 154.1 -66.6 L 154.1 -66.6 Q 159.8 -73 169.6 -73 L 169.6 -73 L 169.6 -73 Q 175.6 -73 178.7 -70.4 L 178.7 -70.4 L 178.7 -70.4 Q 180.9 -68.5 180.9 -65.4 L 180.9 -65.4 L 180.9 -65.4 Q 180.9 -54.1 161.4 -54.1 L 161.4 -54.1 L 161.4 -54.1 Q 161.2 -52.4 161.2 -51 L 161.2 -51 L 161.2 -51 Q 161.2 -48.1 162.5 -47 L 162.5 -47 L 162.5 -47 Q 163.8 -45.8 166.2 -45.8 L 166.2 -45.8 L 166.2 -45.8 Q 168.7 -45.8 171.3 -47 L 171.3 -47 L 171.3 -47 Q 173.9 -48.1 174.9 -49.9 Z M 161.9 -56.9 L 161.9 -56.9 L 161.9 -56.9 Q 166.4 -56.9 169.1 -59.7 L 169.1 -59.7 L 169.1 -59.7 Q 171.7 -62.4 171.7 -66.6 L 171.7 -66.6 L 171.7 -66.6 Q 171.7 -68.1 171.1 -68.9 L 171.1 -68.9 L 171.1 -68.9 Q 170.6 -69.7 169.5 -69.7 L 169.5 -69.7 L 169.5 -69.7 Q 168.4 -69.7 167.5 -69.3 L 167.5 -69.3 L 167.5 -69.3 Q 166.6 -68.9 165.6 -67.5 L 165.6 -67.5 L 165.6 -67.5 Q 163.2 -64.3 161.9 -56.9 Z M 202.2 -61.5 L 202.2 -61.5 L 202.2 -61.5 Q 203.1 -63.9 203.1 -65.9 L 203.1 -65.9 L 203.1 -65.9 Q 203.1 -69.7 200 -69.7 L 200 -69.7 L 200 -69.7 Q 198.4 -69.7 197.1 -68.3 L 197.1 -68.3 L 197.1 -68.3 Q 195.8 -66.8 195.8 -65 L 195.8 -65 L 195.8 -65 Q 195.8 -63.8 196.8 -62.7 L 196.8 -62.7 L 196.8 -62.7 Q 198.3 -61.3 202.1 -59 L 202.1 -59 L 202.1 -59 Q 205.9 -56.7 207.3 -54.8 L 207.3 -54.8 L 207.3 -54.8 Q 208.7 -53 208.7 -50.4 L 208.7 -50.4 L 208.7 -50.4 Q 208.7 -47.8 207.5 -45.4 L 207.5 -45.4 L 207.5 -45.4 Q 206.2 -43 204 -41.4 L 204 -41.4 L 204 -41.4 Q 199.2 -37.8 191.5 -37.8 L 191.5 -37.8 L 191.5 -37.8 Q 187.4 -37.8 184.2 -40 L 184.2 -40 L 184.2 -40 Q 181 -42.1 181 -44.6 L 181 -44.6 L 181 -44.6 Q 181 -47.1 182.8 -48.5 L 182.8 -48.5 L 182.8 -48.5 Q 184.6 -50 187.3 -50 L 187.3 -50 L 187.3 -50 Q 190 -50 191.6 -49 L 191.6 -49 L 191.6 -49 Q 190.8 -46.9 190.8 -45.5 L 190.8 -45.5 L 190.8 -45.5 Q 190.8 -41.2 194.4 -41.2 L 194.4 -41.2 L 194.4 -41.2 Q 195.9 -41.2 197 -42.2 L 197 -42.2 L 197 -42.2 Q 198 -43.2 198 -44.8 L 198 -44.8 L 198 -44.8 Q 198 -48.1 192.5 -51.5 L 192.5 -51.5 L 192.5 -51.5 Q 188 -54.5 187 -55.6 L 187 -55.6 L 187 -55.6 Q 185.2 -57.7 185.2 -60.2 L 185.2 -60.2 L 185.2 -60.2 Q 185.2 -62.8 186.5 -65.2 L 186.5 -65.2 L 186.5 -65.2 Q 187.7 -67.7 189.9 -69.4 L 189.9 -69.4 L 189.9 -69.4 Q 194.6 -73 202.7 -73 L 202.7 -73 L 202.7 -73 Q 206.9 -73 209.3 -71.3 L 209.3 -71.3 L 209.3 -71.3 Q 211.8 -69.7 211.8 -66.8 L 211.8 -66.8 L 211.8 -66.8 Q 211.8 -64 210.1 -62.4 L 210.1 -62.4 L 210.1 -62.4 Q 208.4 -60.8 205.3 -60.8 L 205.3 -60.8 L 205.3 -60.8 Q 203.2 -60.8 202.2 -61.5 Z M 253.3 -59.7 L 266.2 -60.8 L 266.2 -60.8 Q 261.6 -50.7 261.6 -39 L 261.6 -39 L 261.6 -39 Q 259.9 -37.8 257.3 -37.8 L 257.3 -37.8 L 257.3 -37.8 Q 254.8 -37.8 253.2 -39 L 253.2 -39 L 253.2 -39 Q 251.6 -40.2 251.3 -41.4 L 251.3 -41.4 L 251.3 -41.4 Q 249.7 -39.7 247.1 -38.7 L 247.1 -38.7 L 247.1 -38.7 Q 244.5 -37.8 241.8 -37.8 L 241.8 -37.8 L 241.8 -37.8 Q 239 -37.8 236.6 -38.7 L 236.6 -38.7 L 236.6 -38.7 Q 234.2 -39.6 232.3 -41.6 L 232.3 -41.6 L 232.3 -41.6 Q 228.3 -45.9 228.3 -54.2 L 228.3 -54.2 L 228.3 -54.2 Q 228.3 -67 235.1 -74.6 L 235.1 -74.6 L 235.1 -74.6 Q 242.1 -82.6 254.6 -82.6 L 254.6 -82.6 L 254.6 -82.6 Q 263.3 -82.6 266.3 -78.1 L 266.3 -78.1 L 266.3 -78.1 Q 267.3 -76.7 267.3 -75 L 267.3 -75 L 267.3 -75 Q 267.3 -73.3 266.6 -71.9 L 266.6 -71.9 L 266.6 -71.9 Q 265.8 -70.4 264.7 -69.3 L 264.7 -69.3 L 264.7 -69.3 Q 261.9 -66.7 258.5 -66.7 L 258.5 -66.7 L 258.5 -66.7 Q 257.2 -66.7 255.9 -67.2 L 255.9 -67.2 L 255.9 -67.2 Q 256.2 -69.1 256.2 -71.3 L 256.2 -71.3 L 256.2 -71.3 Q 256.2 -73.6 256 -74.6 L 256 -74.6 L 256 -74.6 Q 255.8 -75.6 255.5 -76.4 L 255.5 -76.4 L 255.5 -76.4 Q 254.6 -78.2 252.8 -78.2 L 252.8 -78.2 L 252.8 -78.2 Q 251 -78.2 249 -76.2 L 249 -76.2 L 249 -76.2 Q 246.9 -74.3 245.3 -71.1 L 245.3 -71.1 L 245.3 -71.1 Q 241.8 -63.9 241.8 -55.3 L 241.8 -55.3 L 241.8 -55.3 Q 241.8 -51.3 243.4 -48.5 L 243.4 -48.5 L 243.4 -48.5 Q 245 -45.4 248 -45.4 L 248 -45.4 L 248 -45.4 Q 249 -45.4 249.9 -45.9 L 249.9 -45.9 L 249.9 -45.9 Q 250.8 -46.4 251.2 -46.8 L 251.2 -46.8 L 253.3 -59.7 Z M 272.1 -41 L 272.1 -41 L 272.1 -41 Q 270.6 -42.6 269.9 -45.3 L 269.9 -45.3 L 269.9 -45.3 Q 269.3 -47.9 269.3 -52.2 L 269.3 -52.2 L 269.3 -52.2 Q 269.3 -56.5 270.7 -60.4 L 270.7 -60.4 L 270.7 -60.4 Q 272.2 -64.3 274.9 -67.1 L 274.9 -67.1 L 274.9 -67.1 Q 280.4 -73 289.5 -73 L 289.5 -73 L 289.5 -73 Q 292.8 -73 295.1 -71.9 L 295.1 -71.9 L 306.1 -73 L 301.3 -48 L 301.3 -48 Q 301.1 -47.3 301.1 -45.8 L 301.1 -45.8 L 301.1 -45.8 Q 301.1 -44.4 302 -43.5 L 302 -43.5 L 302 -43.5 Q 302.9 -42.6 304.2 -42.5 L 304.2 -42.5 L 304.2 -42.5 Q 303.5 -40.3 301.2 -39.1 L 301.2 -39.1 L 301.2 -39.1 Q 298.8 -37.8 296.2 -37.8 L 296.2 -37.8 L 296.2 -37.8 Q 293.6 -37.8 291.8 -38.8 L 291.8 -38.8 L 291.8 -38.8 Q 290.1 -39.8 289.6 -41.4 L 289.6 -41.4 L 289.6 -41.4 Q 288.5 -39.8 286.4 -38.8 L 286.4 -38.8 L 286.4 -38.8 Q 284.2 -37.8 281.3 -37.8 L 281.3 -37.8 L 281.3 -37.8 Q 278.4 -37.8 276 -38.6 L 276 -38.6 L 276 -38.6 Q 273.6 -39.3 272.1 -41 Z M 285.6 -67 L 285.6 -67 L 285.6 -67 Q 284.9 -65.8 284.3 -63.9 L 284.3 -63.9 L 284.3 -63.9 Q 283.6 -61.9 282.6 -56.7 L 282.6 -56.7 L 282.6 -56.7 Q 281.5 -51.5 281.5 -47.8 L 281.5 -47.8 L 281.5 -47.8 Q 281.5 -44.1 282.1 -43 L 282.1 -43 L 282.1 -43 Q 282.7 -41.9 283.7 -41.9 L 283.7 -41.9 L 283.7 -41.9 Q 285.7 -41.9 287.2 -43.8 L 287.2 -43.8 L 287.2 -43.8 Q 288.7 -45.8 289.3 -49.2 L 289.3 -49.2 L 292.7 -68 L 292.7 -68 Q 291.4 -69.1 289.8 -69.1 L 289.8 -69.1 L 289.8 -69.1 Q 288.2 -69.1 287.3 -68.6 L 287.3 -68.6 L 287.3 -68.6 Q 286.4 -68.1 285.6 -67 Z M 324.8 -42.6 L 324.8 -42.6 L 324.8 -42.6 Q 322.8 -37.8 316.5 -37.8 L 316.5 -37.8 L 316.5 -37.8 Q 313.3 -37.8 311.3 -40 L 311.3 -40 L 311.3 -40 Q 309.6 -41.9 309.6 -44 L 309.6 -44 L 309.6 -44 Q 309.6 -48.8 311.8 -59.3 L 311.8 -59.3 L 316.5 -83.9 L 329.5 -85.1 L 323.3 -52.8 L 323.3 -52.8 Q 322.2 -48 322.2 -46.4 L 322.2 -46.4 L 322.2 -46.4 Q 322.2 -42.7 324.8 -42.6 Z M 345.6 -42.6 L 345.6 -42.6 L 345.6 -42.6 Q 343.6 -37.8 337.2 -37.8 L 337.2 -37.8 L 337.2 -37.8 Q 334 -37.8 332 -40 L 332 -40 L 332 -40 Q 330.3 -41.9 330.3 -44 L 330.3 -44 L 330.3 -44 Q 330.3 -48.8 332.6 -59.3 L 332.6 -59.3 L 337.2 -83.9 L 350.2 -85.1 L 344 -52.8 L 344 -52.8 Q 342.9 -48 342.9 -46.4 L 342.9 -46.4 L 342.9 -46.4 Q 342.9 -42.7 345.6 -42.6 Z M 376.9 -49.9 L 376.9 -49.9 L 376.9 -49.9 Q 378.5 -48.8 378.5 -46.4 L 378.5 -46.4 L 378.5 -46.4 Q 378.5 -44 377.3 -42.5 L 377.3 -42.5 L 377.3 -42.5 Q 376.1 -40.9 374.1 -39.9 L 374.1 -39.9 L 374.1 -39.9 Q 370 -37.8 365.6 -37.8 L 365.6 -37.8 L 365.6 -37.8 Q 361.2 -37.8 358.6 -38.7 L 358.6 -38.7 L 358.6 -38.7 Q 356 -39.7 354.3 -41.5 L 354.3 -41.5 L 354.3 -41.5 Q 350.9 -44.9 350.9 -51.1 L 350.9 -51.1 L 350.9 -51.1 Q 350.9 -60.8 356.1 -66.6 L 356.1 -66.6 L 356.1 -66.6 Q 361.8 -73 371.5 -73 L 371.5 -73 L 371.5 -73 Q 377.6 -73 380.6 -70.4 L 380.6 -70.4 L 380.6 -70.4 Q 382.9 -68.5 382.9 -65.4 L 382.9 -65.4 L 382.9 -65.4 Q 382.9 -54.1 363.4 -54.1 L 363.4 -54.1 L 363.4 -54.1 Q 363.2 -52.4 363.2 -51 L 363.2 -51 L 363.2 -51 Q 363.2 -48.1 364.5 -47 L 364.5 -47 L 364.5 -47 Q 365.8 -45.8 368.2 -45.8 L 368.2 -45.8 L 368.2 -45.8 Q 370.7 -45.8 373.2 -47 L 373.2 -47 L 373.2 -47 Q 375.8 -48.1 376.9 -49.9 Z M 363.9 -56.9 L 363.9 -56.9 L 363.9 -56.9 Q 368.4 -56.9 371 -59.7 L 371 -59.7 L 371 -59.7 Q 373.7 -62.4 373.7 -66.6 L 373.7 -66.6 L 373.7 -66.6 Q 373.7 -68.1 373.1 -68.9 L 373.1 -68.9 L 373.1 -68.9 Q 372.6 -69.7 371.5 -69.7 L 371.5 -69.7 L 371.5 -69.7 Q 370.4 -69.7 369.5 -69.3 L 369.5 -69.3 L 369.5 -69.3 Q 368.5 -68.9 367.6 -67.5 L 367.6 -67.5 L 367.6 -67.5 Q 365.2 -64.3 363.9 -56.9 Z M 405.1 -57 L 405.1 -57 L 405.1 -57 Q 407.4 -61.1 407.4 -65.3 L 407.4 -65.3 L 407.4 -65.3 Q 407.4 -68.1 405.4 -68.1 L 405.4 -68.1 L 405.4 -68.1 Q 403.9 -68.1 402.3 -65.4 L 402.3 -65.4 L 402.3 -65.4 Q 400.6 -62.8 400.1 -59.4 L 400.1 -59.4 L 396.8 -39.1 L 383.5 -37.8 L 390 -71.7 L 400.6 -73 L 399.5 -66.5 L 399.5 -66.5 Q 402.6 -73 409.6 -73 L 409.6 -73 L 409.6 -73 Q 413.3 -73 415.4 -71.1 L 415.4 -71.1 L 415.4 -71.1 Q 417.4 -69.1 417.4 -65.2 L 417.4 -65.2 L 417.4 -65.2 Q 417.4 -61.3 414.8 -58.8 L 414.8 -58.8 L 414.8 -58.8 Q 412.2 -56.3 407.8 -56.3 L 407.8 -56.3 L 407.8 -56.3 Q 405.9 -56.3 405.1 -57 Z M 438.7 -46.3 L 438.7 -46.3 L 438.7 -46.3 Q 435.4 -42.8 429.3 -42.8 L 429.3 -42.8 L 429.3 -42.8 Q 421.7 -42.8 420.1 -48.4 L 420.1 -48.4 L 420.1 -48.4 Q 419.6 -50.1 419.6 -51.9 L 419.6 -51.9 L 419.6 -51.9 Q 419.6 -53.8 420 -55.7 L 420 -55.7 L 423 -71.7 L 436 -73 L 432.5 -54.4 L 432.5 -54.4 Q 432.3 -53.5 432.2 -52.6 L 432.2 -52.6 L 432.2 -52.6 Q 432 -51.7 432 -50.8 L 432 -50.8 L 432 -50.8 Q 432 -49.9 432.3 -49.3 L 432.3 -49.3 L 432.3 -49.3 Q 432.6 -48.7 433.1 -48.3 L 433.1 -48.3 L 433.1 -48.3 Q 433.8 -47.8 435.2 -47.8 L 435.2 -47.8 L 435.2 -47.8 Q 436.6 -47.8 437.8 -49.4 L 437.8 -49.4 L 437.8 -49.4 Q 438.9 -51.1 439.5 -54 L 439.5 -54 L 443 -71.7 L 455.6 -73 L 450.8 -47.8 L 450.8 -47.8 Q 448.5 -35.5 443.6 -30.7 L 443.6 -30.7 L 443.6 -30.7 Q 441.1 -28.2 437.9 -27.2 L 437.9 -27.2 L 437.9 -27.2 Q 434.7 -26.2 430.5 -26.2 L 430.5 -26.2 L 430.5 -26.2 Q 423.8 -26.2 419.9 -28.3 L 419.9 -28.3 L 419.9 -28.3 Q 416.1 -30.4 416.1 -33.9 L 416.1 -33.9 L 416.1 -33.9 Q 416.1 -36.6 418.1 -38.1 L 418.1 -38.1 L 418.1 -38.1 Q 420.1 -39.6 423.1 -39.6 L 423.1 -39.6 L 423.1 -39.6 Q 425.8 -39.6 427.9 -38.4 L 427.9 -38.4 L 427.9 -38.4 Q 429.1 -37.7 429.7 -36.8 L 429.7 -36.8 L 429.7 -36.8 Q 428.2 -35.5 428.2 -33.4 L 428.2 -33.4 L 428.2 -33.4 Q 428.2 -30.6 430.7 -30.6 L 430.7 -30.6 L 430.7 -30.6 Q 435 -30.6 437.4 -40.3 L 437.4 -40.3 L 437.4 -40.3 Q 438.1 -43.2 438.7 -46.3 Z" fill="url(#editing-gradow-gradient)"></path></g></g><style>text {
  font-size: 64px;
  font-family: Arial Black;
  dominant-baseline: central;
  text-anchor: middle;
}</style></svg>